# xmcd
#
# Track frame offsets: 
#        150
#        17465
#        33532
#        54267
#        74327
#        93810
#        107760
#        126740
#        152720
#        162267
#        178040
#        190342
#        220832
#        239639
#        258530
#
# Disc length: 3804 seconds
#
# Revision: 0
# Processed by: cddbd v1.5.2PL0 Copyright (c) Steve Scherf et al.
# Submitted via: ExactAudioCopyFreeDBPlugin 1.0
#
DISCID=d30eda0f
DTITLE=Howe Gelb - The Listener
DYEAR=2005
DGENRE=Alt. Rock
TTITLE0=Glisten
TTITLE1=Felonius
TTITLE2=Jason's List
TTITLE3=Cowboy Boots
TTITLE4=Torque (Tango De La Tongue)
TTITLE5=Piango
TTITLE6=Lying There
TTITLE7=B 4 U (Do Do Do)
TTITLE8=The Nashville Sound
TTITLE9=Blood Orange
TTITLE10=Moons Of Impulse
TTITLE11=Now I Lay Me Down
TTITLE12=Lemmy N Emmy
TTITLE13=Torque Originale
TTITLE14=B 4 U (Do Do Do) - Alt Mix
EXTD=
EXTT0=
EXTT1=
EXTT2=
EXTT3=
EXTT4=
EXTT5=
EXTT6=
EXTT7=
EXTT8=
EXTT9=
EXTT10=
EXTT11=
EXTT12=
EXTT13=
EXTT14=
PLAYORDER=
